<?xml version="1.0" encoding="UTF-8"?>
<svg xmlns="http://www.w3.org/2000/svg" xmlns:xlink="http://www.w3.org/1999/xlink" width="266px" height="70px" viewBox="0 0 266 70" version="1.1">
  <title>Group 35</title>
  <g id="Page-1" stroke="none" stroke-width="1" fill="none" fill-rule="evenodd">
    <g id="In-Guardia-Health-2" transform="translate(-147.000000, -38.000000)" fill-rule="nonzero">
      <g id="Group-35" transform="translate(147.000000, 38.000000)">
        <g id="Group" transform="translate(83.336519, 3.761436)" fill="#335E68">
          <path d="M0,8.57672264 L7.06008401,8.57672264 L7.06008401,29.1105964 L0,29.1105964 L0,8.57672264 Z M0.0566749863,0 L7.01150545,0 L7.01150545,5.99884192 L0.0566749863,5.99884192 L0.0566749863,0 Z" id="Shape"></path>
          <path d="M30.6368783,16.5859873 L30.6368783,29.1024899 L23.5767943,29.1024899 L23.5767943,17.566879 C23.5767943,15.1754488 22.6780909,13.9918935 20.9049735,13.9918935 C18.7027455,13.9918935 17.4316065,15.5321367 17.4316065,18.1424435 L17.4316065,29.1024899 L10.3715225,29.1024899 L10.3715225,8.57672264 L15.3265356,8.57672264 L16.2981068,10.6925304 C17.8283314,8.99015634 20.1034273,7.96873191 22.7509588,7.96873191 C27.5116576,7.96873191 30.6368783,11.3572669 30.6368783,16.5859873 Z" id="Path"></path>
          <path d="M60.6746211,14.8836132 C60.6746211,23.5900405 54.999026,29.7834395 46.6758994,29.7834395 C38.5308943,29.7834395 32.5152493,23.9224088 32.5152493,15.8239722 C32.5152493,7.72553561 38.4256407,1.82397221 46.611128,1.82397221 C53.5821513,1.82397221 59.2820357,6.18529241 60.3993425,12.3705848 L52.7239301,12.3705848 C51.7604553,10.1250724 49.3801059,8.69021424 46.6758994,8.69021424 C42.6924575,8.69021424 40.0125403,11.5761436 40.0125403,15.8239722 C40.0125403,20.0312681 42.6519754,22.9171975 46.6758994,22.9171975 C49.4691666,22.9171975 51.8657089,21.5634047 52.6996408,19.5124493 L46.1010531,19.5124493 L46.1010531,14.8917197 L60.6746211,14.8836132 Z" id="Path"></path>
          <path d="M62.609667,20.2906775 L62.609667,8.57672264 L69.669751,8.57672264 L69.669751,19.9907354 C69.669751,22.1551824 70.8356365,23.4279097 72.7221039,23.4279097 C74.6085713,23.4279097 75.7501674,22.1308628 75.7501674,19.9907354 L75.7501674,8.57672264 L82.8102514,8.57672264 L82.8102514,20.2906775 C82.8102514,26.0382166 78.778231,29.7753461 72.7140074,29.7753461 C66.6659767,29.7834395 62.609667,26.0382166 62.609667,20.2906775 Z" id="Path"></path>
          <path d="M107.674378,8.55240301 L107.674378,29.0862768 L102.217386,29.0862768 L101.610154,27.6352056 C99.9341937,28.9971048 97.8048335,29.7834395 95.4244841,29.7834395 C89.1578499,29.7834395 84.6724295,25.2032426 84.6724295,18.8233932 C84.6724295,12.4678633 89.1578499,7.93630573 95.4244841,7.93630573 C97.8372192,7.93630573 99.9989651,8.74696005 101.691118,10.1412855 L102.4117,8.55240301 L107.674378,8.55240301 L107.674378,8.55240301 Z M100.96244,18.8314997 C100.96244,16.164447 99.0192975,14.1621309 96.371766,14.1621309 C93.7080416,14.1621309 91.7810921,16.164447 91.7810921,18.8314997 C91.7810921,21.5147655 93.7242345,23.5170816 96.371766,23.5170816 C99.0112011,23.5170816 100.96244,21.5147655 100.96244,18.8314997 Z" id="Shape"></path>
          <path d="M124.336824,8.47944412 L124.336824,14.9484655 L121.592135,14.9484655 C119.090339,14.9484655 118.0459,16.0428489 118.0459,18.6612623 L118.0459,29.1024899 L110.985816,29.1024899 L110.985816,8.57672264 L115.722226,8.57672264 L116.82334,10.8546613 C118.2726,9.17660683 120.029525,8.47944412 122.474645,8.47944412 L124.336824,8.47944412 Z" id="Path"></path>
          <path d="M147.184939,1.15923567 L147.184939,29.1024899 L141.954648,29.1024899 L141.290741,27.5784598 C139.622877,28.9808917 137.493517,29.7996526 135.105071,29.7996526 C128.814147,29.7996526 124.328727,25.2194557 124.328727,18.8396063 C124.328727,12.4597568 128.814147,7.90387956 135.105071,7.90387956 C136.999635,7.90387956 138.73227,8.41459178 140.197723,9.33063115 L140.197723,1.15923567 L147.184939,1.15923567 Z M140.643027,18.8396063 C140.643027,16.1563405 138.699884,14.1378112 136.052353,14.1378112 C133.404821,14.1378112 131.461679,16.1563405 131.461679,18.8396063 C131.461679,21.522872 133.404821,23.5332947 136.052353,23.5332947 C138.699884,23.5332947 140.643027,21.522872 140.643027,18.8396063 Z" id="Shape"></path>
          <path d="M150.472089,8.57672264 L157.532173,8.57672264 L157.532173,29.1105964 L150.472089,29.1105964 L150.472089,8.57672264 Z M150.528764,0 L157.483594,0 L157.483594,5.99884192 L150.528764,5.99884192 L150.528764,0 Z" id="Shape"></path>
          <path d="M182.663481,8.55240301 L182.663481,29.0862768 L177.206489,29.0862768 L176.599257,27.6352056 C174.923297,28.9971048 172.793937,29.7834395 170.413587,29.7834395 C164.146953,29.7834395 159.661533,25.2032426 159.661533,18.8233932 C159.661533,12.4678633 164.146953,7.93630573 170.413587,7.93630573 C172.826323,7.93630573 174.988068,8.74696005 176.680222,10.1412855 L177.400804,8.55240301 L182.663481,8.55240301 L182.663481,8.55240301 Z M175.943447,18.8314997 C175.943447,16.164447 174.000304,14.1621309 171.352773,14.1621309 C168.689049,14.1621309 166.762099,16.164447 166.762099,18.8314997 C166.762099,21.5147655 168.705241,23.5170816 171.352773,23.5170816 C174.000304,23.5170816 175.943447,21.5147655 175.943447,18.8314997 Z" id="Shape"></path>
        </g>
        <g id="Group" transform="translate(83.676569, 41.375796)" fill="#335E68">
          <polygon id="Path" points="22.7590552 1.32947307 22.7590552 27.9432542 15.3670177 27.9432542 15.3670177 17.7290098 7.3920375 17.7290098 7.3920375 27.9432542 0 27.9432542 0 1.32947307 7.3920375 1.32947307 7.3920375 10.9357267 15.3670177 10.9357267 15.3670177 1.32947307"></polygon>
          <path d="M47.21836,17.4858135 C47.21836,18.1019108 47.161685,18.7261146 47.0726243,19.358425 L31.8432459,19.358425 C32.3047422,21.7174291 33.8025811,22.9334105 36.0290984,22.9334105 C37.6807695,22.9334105 39.057162,22.2119282 39.7372618,21.0040533 L46.7649601,21.0040533 C45.3237962,25.6896352 41.1703293,28.6160973 36.0290984,28.6160973 C29.6329214,28.6160973 24.8884154,23.9305153 24.8884154,17.6641575 C24.8884154,11.3653735 29.5924393,6.74464389 36.0290984,6.74464389 C42.643879,6.74464389 47.21836,11.462652 47.21836,17.4858135 L47.21836,17.4858135 Z M31.9727887,15.4429647 L40.2635296,15.4429647 C39.6482011,13.3920093 38.1665551,12.2814129 36.0371949,12.2814129 C33.9726061,12.2814129 32.5395386,13.4082224 31.9727887,15.4429647 Z" id="Shape"></path>
          <path d="M71.110915,7.39316734 L71.110915,27.9270411 L65.6539234,27.9270411 L65.0466914,26.4759699 C63.3707311,27.8378691 61.2413709,28.6242038 58.8610215,28.6242038 C52.5943873,28.6242038 48.1089669,24.0440069 48.1089669,17.6641575 C48.1089669,11.3086277 52.5943873,6.77707006 58.8610215,6.77707006 C61.2737566,6.77707006 63.4355025,7.58772438 65.1276557,8.9820498 L65.8482377,7.39316734 L71.110915,7.39316734 Z M64.3989773,17.6803706 C64.3989773,15.0133179 62.4558349,13.0110017 59.8083034,13.0110017 C57.144579,13.0110017 55.2176295,15.0133179 55.2176295,17.6803706 C55.2176295,20.3636364 57.1607719,22.3659525 59.8083034,22.3659525 C62.4477385,22.357846 64.3989773,20.3555298 64.3989773,17.6803706 Z" id="Shape"></path>
          <polygon id="Path" points="74.4223534 0 81.4824375 0 81.4824375 27.9432542 74.4223534 27.9432542"></polygon>
          <path d="M98.6144762,21.7579618 L98.6144762,27.9513607 L93.7566202,27.9513607 C89.2226213,27.9513607 86.4617398,25.178923 86.4617398,20.6149392 L86.4617398,12.865084 L82.7130943,12.865084 L82.7130943,11.2113492 L91.9025385,1.41864505 L93.3517989,1.41864505 L93.3517989,7.42559351 L98.5011262,7.42559351 L98.5011262,12.8731905 L93.5299203,12.8731905 L93.5299203,19.4070643 C93.5299203,20.8743486 94.4124308,21.7660683 95.9021733,21.7660683 L98.6144762,21.7660683 L98.6144762,21.7579618 Z" id="Path"></path>
          <path d="M121.041578,15.5807759 L121.041578,27.9432542 L113.981494,27.9432542 L113.981494,16.3995368 C113.981494,14.0324262 113.147562,12.8245512 111.309673,12.8245512 C109.172216,12.8245512 107.836306,14.3404748 107.836306,16.9751013 L107.836306,27.9351477 L100.776222,27.9351477 L100.776222,0 L107.836306,0 L107.836306,8.76317313 C109.350338,7.54719166 111.269191,6.80138969 113.30949,6.80138969 C118.013514,6.80949624 121.041578,10.2628836 121.041578,15.5807759 Z" id="Path"></path>
        </g>
        <g id="Group">
          <polygon id="Path" fill="#CAC9C7" points="69.0463262 9.46844239 59.5896999 9.46844239 59.5896999 0 47.9146527 0 47.9146527 9.46844239 38.4580264 9.46844239 38.4580264 21.1580776 47.9146527 21.1580776 47.9146527 30.62652 59.5896999 30.62652 59.5896999 21.1580776 69.0463262 21.1580776"></polygon>
          <g transform="translate(0.000000, 9.444123)" id="Path">
            <path d="M48.0037134,24.6601042 L29.9891642,24.6601042 L29.9891642,36.268674 L44.3279357,36.268674 L47.6798563,36.268674 L47.7365313,36.268674 C47.6393742,36.5605096 47.5260242,36.8523451 47.4126743,37.1441807 C45.1132891,44.1401274 39.1381263,50.2929936 30.9040604,53.1383903 C22.5242588,56.0324262 13.8529859,54.775912 7.69160528,50.5118703 C13.2214647,56.6728431 21.2531199,60.5558772 30.175382,60.5558772 C36.8468375,60.5558772 43.0082182,58.3914302 48.0118098,54.7272727 L48.0118098,60.3775333 L59.6058927,60.3775333 L59.6058927,24.6601042 L48.0037134,24.6601042 Z" fill="#70C1B3"></path>
            <g>
              <path d="M0,30.059062 C0,37.8008107 2.77707433,45.0723798 7.56206246,50.4226983 C13.4157789,53.3410539 20.5406343,54.0057904 28.0298289,51.4279097 C30.3211177,50.641575 32.434285,49.5877244 34.3450417,48.3393167 C32.984842,48.6554719 31.5598709,48.8338159 30.1025142,48.8338159 C26.9853899,48.8338159 24.046387,48.0636943 21.4717234,46.701795 C13.6100931,42.9727852 8.20977659,33.8610307 8.20977659,23.4603358 C8.20977659,14.8998263 11.4402508,7.6850029 18.5165277,2.16444702 C7.35155537,6.9148813 0,17.6398379 0,30.059062 Z" fill="#3A8D8C"></path>
              <path d="M11.5940829,29.134916 C12.1770256,19.4962362 20.0953309,11.8436595 29.8353321,11.7058483 L29.8353321,11.7058483 L34.8308273,11.7058483 L34.8308273,0 L29.8353321,0 L29.8353321,0 C25.7790223,0.0324261726 21.9089304,0.875506659 18.3869848,2.35900405 C13.3267182,7.3850608 10.5820296,14.1621309 10.5820296,21.5715113 C10.5820296,24.2061378 10.9301759,26.7515924 11.5940829,29.134916 Z" fill="#335E68"></path>
            </g>
          </g>
        </g>
      </g>
    </g>
  </g>
</svg>
