<svg width="658" height="62" viewBox="0 0 658 62" fill="none" xmlns="http://www.w3.org/2000/svg">
<path d="M560.723 0.572266H571.187L586.72 50.0321L602.253 0.572266H612.717L593.096 60.9051H580.343L560.723 0.572266Z" fill="#EA3168"/>
<path d="M639.441 61.3956C634.318 61.3956 630.231 60.6053 627.179 59.0248C624.126 57.3897 621.783 54.3377 620.148 49.8686C618.567 45.3995 617.777 38.9411 617.777 30.4934C617.777 22.4817 618.595 16.2686 620.23 11.854C621.865 7.38491 624.263 4.30559 627.424 2.61606C630.585 0.87202 634.672 0 639.687 0C642.957 0 646.227 0.272507 649.497 0.817522C652.821 1.30803 655.655 1.90754 657.999 2.61606V10.3825C656.364 10.0555 654.02 9.75571 650.968 9.48321C647.971 9.2107 644.891 9.07445 641.73 9.07445C638.133 9.07445 635.354 9.64671 633.392 10.7912C631.484 11.8813 630.094 13.9523 629.222 17.0044C628.35 20.0564 627.914 24.6073 627.914 30.6569C627.914 36.7065 628.323 41.2574 629.141 44.3094C629.958 47.3615 631.321 49.4598 633.228 50.6043C635.136 51.7489 637.942 52.3211 641.649 52.3211C647.862 52.3211 653.312 52.0214 657.999 51.4219V59.1883C653.039 60.6598 646.853 61.3956 639.441 61.3956Z" fill="#EA3168"/>
<path d="M116.633 0.898712H120.639L153.83 52.6476V0.898712H158.571V60.9045H154.647L121.374 9.15564V60.9045H116.633V0.898712Z" fill="white"/>
<path d="M189.292 61.2315C185.75 61.2315 182.834 60.4957 180.545 59.0242C178.256 57.5527 177.111 54.5551 177.111 50.0315V12.4257C177.111 8.39262 178.174 5.47681 180.3 3.67827C182.425 1.82523 185.041 0.898712 188.148 0.898712C191.036 0.898712 197.44 1.03496 207.359 1.30747L213.164 1.55273V5.23155H189.374C186.976 5.23155 185.123 5.88557 183.815 7.1936C182.507 8.44713 181.853 10.3819 181.853 12.998V28.9396L209.73 29.3483V32.8636L181.853 33.2724V49.1322C181.853 52.1843 182.589 54.2281 184.06 55.2636C185.532 56.2991 187.494 56.8169 189.946 56.8169H213.164V60.4957C205.97 60.8227 198.012 61.068 189.292 61.2315Z" fill="white"/>
<path d="M245.291 5.1498H226.079V0.898712H269.244V5.1498H250.032V60.9045H245.291V5.1498Z" fill="white"/>
<path d="M280.246 0.898712H285.232L299.13 54.7731L315.072 0.898712H320.14L336 54.7731L349.98 0.898712H354.885L339.107 60.9045H333.711L317.606 7.1936L301.419 60.9045H296.024L280.246 0.898712Z" fill="white"/>
<path d="M391.71 61.395C386.15 61.395 381.79 60.6865 378.629 59.2695C375.468 57.7979 373.07 54.9094 371.435 50.6038C369.8 46.2437 368.983 39.7853 368.983 31.2286C368.983 22.6719 369.8 16.1863 371.435 11.7717C373.125 7.3026 375.577 4.30503 378.793 2.779C382.008 1.19847 386.314 0.408203 391.71 0.408203C397.269 0.408203 401.629 1.19847 404.79 2.779C408.005 4.30503 410.403 7.27535 411.984 11.6899C413.619 16.1045 414.436 22.6174 414.436 31.2286C414.436 39.7853 413.619 46.2437 411.984 50.6038C410.349 54.9094 407.951 57.7979 404.79 59.2695C401.629 60.6865 397.269 61.395 391.71 61.395ZM391.71 57.1439C396.342 57.1439 399.885 56.5171 402.337 55.2636C404.844 54.0101 406.697 51.5575 407.896 47.906C409.095 44.1999 409.695 38.6408 409.695 31.2286C409.695 23.4894 409.095 17.7396 407.896 13.979C406.697 10.2184 404.844 7.73861 402.337 6.53958C399.885 5.28606 396.342 4.65929 391.71 4.65929C387.295 4.65929 383.834 5.28606 381.327 6.53958C378.875 7.73861 376.994 10.2457 375.686 14.0607C374.378 17.8758 373.724 23.5984 373.724 31.2286C373.724 38.6953 374.269 44.2544 375.359 47.906C376.504 51.5575 378.302 54.0101 380.755 55.2636C383.262 56.5171 386.913 57.1439 391.71 57.1439Z" fill="white"/>
<path d="M432.72 0.898712H456.019C460.488 0.898712 464.112 2.09774 466.892 4.49579C469.726 6.83934 471.143 11.3629 471.143 18.0666C471.143 24.1162 469.971 28.34 467.628 30.7381C465.338 33.1362 462.504 34.5804 459.125 35.0709L471.715 60.9045H466.974L454.629 35.5615C449.397 35.5615 443.674 35.4524 437.461 35.2344V60.9045H432.72V0.898712ZM455.447 31.6374C458.88 31.6374 461.551 30.7108 463.458 28.8578C465.42 26.9503 466.401 23.3532 466.401 18.0666C466.401 13.0525 465.42 9.64615 463.458 7.84761C461.496 6.04907 458.826 5.1498 455.447 5.1498H437.461V31.6374H455.447Z" fill="white"/>
<path d="M488.438 0.898712H493.18V28.7761H504.625L522.284 0.898712H527.352L508.386 30.9016L527.516 60.9045H522.365L504.544 33.0271H493.18V60.9045H488.438V0.898712Z" fill="white"/>
<path d="M543.275 60.9045C542.948 60.9045 542.676 60.8227 542.458 60.6592C542.24 60.4412 542.131 60.1415 542.131 59.76V53.7921C542.131 53.0291 542.512 52.6476 543.275 52.6476H545.891C546.654 52.6476 547.036 53.0291 547.036 53.7921V59.76C547.036 60.523 546.654 60.9045 545.891 60.9045H543.275Z" fill="white"/>
<path d="M45.9662 46.6316L74.1212 61.043L37.6055 1.09169L37.6055 31.1394L55.6133 31.1394L45.9662 46.6316Z" fill="url(#paint0_linear)"/>
<path d="M29.2447 46.6316L1.08969 61.043L37.6055 1.09169L37.6055 31.1394L19.5977 31.1394L29.2447 46.6316Z" fill="url(#paint1_linear)"/>
<path d="M55.0469 31.0685L20.1661 31.0685L37.4986 41.9687L55.0469 31.0685Z" fill="url(#paint2_linear)"/>
<path d="M29.253 46.8727L0.544434 61.043L74.666 61.043L46.1744 46.8727L37.4244 60.4147L29.253 46.8727Z" fill="url(#paint3_linear)"/>
<path d="M55.5898 31.0676L37.6045 59.4082L37.6045 41.3473L55.5898 31.0676Z" fill="#EA3168"/>
<path d="M19.6211 31.0676L37.6065 59.4082L37.6065 41.3473L19.6211 31.0676Z" fill="url(#paint4_linear)"/>
<path fill-rule="evenodd" clip-rule="evenodd" d="M37.6058 0.546882L75.2116 61.5882L-1.06728e-05 61.5882L37.6058 0.546882ZM2.25619 59.8318L28.7361 46.2997L29.1914 47.1892L2.97031 60.5891L72.2554 60.5891L46.2331 47.1885L46.6912 46.3004L72.9498 59.8227L38.1058 3.2643L38.1058 30.759L37.1058 30.759L37.1058 3.2643L2.25619 59.8318Z" fill="#830127"/>
<path fill-rule="evenodd" clip-rule="evenodd" d="M37.332 60.5C37.1587 60.5 36.9979 60.4113 36.907 60.2657L19.1483 31.8208C19.0534 31.6688 19.0492 31.4779 19.1374 31.322C19.2256 31.166 19.3924 31.0694 19.5733 31.0694L55.0906 31.0694C55.2715 31.0694 55.4383 31.166 55.5265 31.322C55.6147 31.4779 55.6105 31.6688 55.5156 31.8208L37.757 60.2657C37.6661 60.4113 37.5052 60.5 37.332 60.5ZM53.5906 33.0256L37.8312 42.3608L37.8312 58.2681L53.5906 33.0256ZM36.8327 58.2681L36.8327 42.3608L21.0733 33.0256L36.8327 58.2681ZM21.3756 32.0551L37.332 41.507L53.2883 32.0551L21.3756 32.0551Z" fill="#830127"/>
<defs>
<linearGradient id="paint0_linear" x1="55.8634" y1="61.043" x2="55.8634" y2="1.09169" gradientUnits="userSpaceOnUse">
<stop stop-color="#EA3168"/>
<stop offset="1" stop-color="#AF1744"/>
</linearGradient>
<linearGradient id="paint1_linear" x1="19.3476" y1="61.043" x2="19.3476" y2="1.09169" gradientUnits="userSpaceOnUse">
<stop stop-color="#EA3168"/>
<stop offset="1" stop-color="#AF1744"/>
</linearGradient>
<linearGradient id="paint2_linear" x1="48.5279" y1="37.2264" x2="26.1909" y2="36.2144" gradientUnits="userSpaceOnUse">
<stop stop-color="#FF2365"/>
<stop offset="1" stop-color="#B11343"/>
</linearGradient>
<linearGradient id="paint3_linear" x1="60.8132" y1="54.878" x2="13.5091" y2="51.3746" gradientUnits="userSpaceOnUse">
<stop stop-color="#FF2365"/>
<stop offset="1" stop-color="#B11343"/>
</linearGradient>
<linearGradient id="paint4_linear" x1="22.9824" y1="47.0782" x2="34.5227" y2="46.9745" gradientUnits="userSpaceOnUse">
<stop stop-color="#FF2365"/>
<stop offset="1" stop-color="#B11343"/>
</linearGradient>
</defs>
</svg>
